HIERARCHY
ROOT Hips
{
	OFFSET 0.00000 0.00000 0.00000
	CHANNELS 6 Xposition Yposition Zposition Zrotation Yrotation Xrotation 
	JOINT LHipJoint
	{
		OFFSET 0 0 0
		CHANNELS 3 Zrotation Yrotation Xrotation
		JOINT LeftUpLeg
		{
			OFFSET 1.82298 -1.58346 0.87084
			CHANNELS 3 Zrotation Yrotation Xrotation
			JOINT LeftLeg
			{
				OFFSET 2.43790 -6.69809 0.00000
				CHANNELS 3 Zrotation Yrotation Xrotation
				JOINT LeftFoot
				{
					OFFSET 2.59288 -7.12389 0.00000
					CHANNELS 3 Zrotation Yrotation Xrotation
					JOINT LeftToeBase
					{
						OFFSET 0.14552 -0.39981 2.13160
						CHANNELS 3 Zrotation Yrotation Xrotation
						End Site
						{
							OFFSET 0.00000 -0.00000 1.09427
						}
					}
				}
			}
		}
	}
	JOINT RHipJoint
	{
		OFFSET 0 0 0
		CHANNELS 3 Zrotation Yrotation Xrotation
		JOINT RightUpLeg
		{
			OFFSET -1.77229 -1.58346 0.87084
			CHANNELS 3 Zrotation Yrotation Xrotation
			JOINT RightLeg
			{
				OFFSET -2.50703 -6.88801 0.00000
				CHANNELS 3 Zrotation Yrotation Xrotation
				JOINT RightFoot
				{
					OFFSET -2.61620 -7.18796 0.00000
					CHANNELS 3 Zrotation Yrotation Xrotation
					JOINT RightToeBase
					{
						OFFSET -0.15190 -0.41735 2.15974
						CHANNELS 3 Zrotation Yrotation Xrotation
						End Site
						{
							OFFSET -0.00000 -0.00000 1.10919
						}
					}
				}
			}
		}
	}
	JOINT LowerBack
	{
		OFFSET 0 0 0
		CHANNELS 3 Zrotation Yrotation Xrotation
		JOINT Spine
		{
			OFFSET -0.03602 2.12423 -0.30249
			CHANNELS 3 Zrotation Yrotation Xrotation
			JOINT Spine1
			{
				OFFSET 0.02717 2.10043 0.12912
				CHANNELS 3 Zrotation Yrotation Xrotation
				JOINT Neck
				{
					OFFSET 0 0 0
					CHANNELS 3 Zrotation Yrotation Xrotation
					JOINT Neck1
					{
						OFFSET -0.06371 1.88656 0.11602
						CHANNELS 3 Zrotation Yrotation Xrotation
						JOINT Head
						{
							OFFSET 0.08208 1.87759 -0.11505
							CHANNELS 3 Zrotation Yrotation Xrotation
							End Site
							{
								OFFSET 0.03382 1.93090 -0.05483
							}
						}
					}
				}
				JOINT LeftShoulder
				{
					OFFSET 0 0 0
					CHANNELS 3 Zrotation Yrotation Xrotation
					JOINT LeftArm
					{
						OFFSET 3.30903 1.40357 0.20156
						CHANNELS 3 Zrotation Yrotation Xrotation
						JOINT LeftForeArm
						{
							OFFSET 5.43301 -0.00000 0.00000
							CHANNELS 3 Zrotation Yrotation Xrotation
							JOINT LeftHand
							{
								OFFSET 3.15936 -0.00000 0.00000
								CHANNELS 3 Zrotation Yrotation Xrotation
								JOINT LeftFingerBase
								{
									OFFSET 0 0 0
									CHANNELS 3 Zrotation Yrotation Xrotation
									JOINT LeftHandIndex1
									{
										OFFSET 0.71283 -0.00000 0.00000
										CHANNELS 3 Zrotation Yrotation Xrotation
										End Site
										{
											OFFSET 0.57470 -0.00000 0.00000
										}
									}
								}
								JOINT LThumb
								{
									OFFSET 0 0 0
									CHANNELS 3 Zrotation Yrotation Xrotation
									End Site
									{
										OFFSET 0.58347 -0.00000 0.58347
									}
								}
							}
						}
					}
				}
				JOINT RightShoulder
				{
					OFFSET 0 0 0
					CHANNELS 3 Zrotation Yrotation Xrotation
					JOINT RightArm
					{
						OFFSET -3.12947 1.60037 -0.00464
						CHANNELS 3 Zrotation Yrotation Xrotation
						JOINT RightForeArm
						{
							OFFSET -5.34194 -0.00000 0.00000
							CHANNELS 3 Zrotation Yrotation Xrotation
							JOINT RightHand
							{
								OFFSET -3.19351 -0.00000 0.00000
								CHANNELS 3 Zrotation Yrotation Xrotation
								JOINT RightFingerBase
								{
									OFFSET 0 0 0
									CHANNELS 3 Zrotation Yrotation Xrotation
									JOINT RightHandIndex1
									{
										OFFSET -0.74386 -0.00000 0.00000
										CHANNELS 3 Zrotation Yrotation Xrotation
										End Site
										{
											OFFSET -0.59972 -0.00000 0.00000
										}
									}
								}
								JOINT RThumb
								{
									OFFSET 0 0 0
									CHANNELS 3 Zrotation Yrotation Xrotation
									End Site
									{
										OFFSET -0.60888 -0.00000 0.60888
									}
								}
							}
						}
					}
				}
			}
		}
	}
}
MOTION
Frames: 15
Frame Time: .0083333
-7.6169 14.8472 -35.7858 0 0 0 0 0 0 -21 0 0 0 0 0 0 0 0 0 0 0 0 0 0 21 0 0 0 0 0 0 0 0 0 0 0 0 0 0 0 0 0 0 0 0 0 0 -16 0 0 21 0 0 11 0 0 0 -8 0 0 0 0 0 0 0 0 0 0 0 0 0 0 0 0 0 0 0 0 8 0 0 0 0 0 0 0 0 0 0 0 0 0 0 0 0 0
-7.6169 14.8472 -35.7858 2.8475 60.8177 4.7958 0.0000 0.0000 0.0000 -1.8618 9.4327 -17.8177 8.7288 16.6300 55.1473 2.4962 7.6018 -33.2834 1.5356 -7.8232 -22.1784 0.0000 0.0000 0.0000 -10.5207 19.3135 -37.9406 -8.9950 -16.8045 56.0730 0.0482 25.0100 -17.3355 -0.6650 5.2154 -14.5240 -8.1680 -5.3068 16.5417 4.3812 -8.2190 -0.7739 11.2874 -3.5129 -8.2692 -17.8642 -17.7256 9.1538 19.0386 -25.8578 2.6350 7.2680 -13.2284 4.1620 0.0000 0.0000 0.0000 -86.4871 4.5407 21.9564 18.8067 -29.1778 -4.9363 -0.0000 -0.0000 13.9919 28.4984 8.9011 4.8019 -7.1250 0.0000 -0.0000 1.3918 40.0807 -0.1688 0.0000 0.0000 0.0000 72.4177 -8.9576 30.7359 -20.0741 30.7315 -5.5692 0.0000 0.0000 0.1980 -14.5559 -38.2789 9.1381 7.1250 -0.0000 -0.0000 27.5506 -67.2446 -15.2145
-7.6169 14.8551 -35.7906 3.1021 60.5554 5.0506 0.0000 0.0000 0.0000 -2.1008 9.5638 -17.7066 8.6710 16.5913 54.9453 2.4790 7.7050 -33.2434 1.6165 -8.0168 -22.7651 0.0000 0.0000 0.0000 -10.6835 19.2580 -38.1045 -8.9603 -16.7821 55.9526 0.1385 25.3557 -16.9898 -0.6235 5.0530 -14.0598 -8.2293 -5.3123 16.3903 4.3464 -8.2339 -0.8019 11.2651 -3.5234 -8.2089 -17.8229 -17.7533 9.1468 18.9774 -25.8946 2.7053 7.2372 -13.2440 4.1768 -0.0000 -0.0000 0.0000 -86.2617 4.1288 21.8262 17.8723 -27.9933 -4.4891 -0.0000 -0.0000 15.3517 28.3436 9.1889 4.9234 -7.1250 0.0000 -0.0000 1.2398 40.3916 -0.1409 -0.0000 -0.0000 0.0000 72.5632 -9.0425 29.9920 -19.7405 30.3285 -5.3997 0.0000 -0.0000 -0.3668 -15.8104 -38.4222 9.9804 7.1250 -0.0000 -0.0000 26.3338 -67.7461 -14.8003
-7.6171 14.8640 -35.7927 3.2097 60.3258 5.1256 0.0000 0.0000 0.0000 -2.2105 9.7494 -17.5561 8.6144 16.5531 54.7469 2.4886 7.6345 -33.2583 1.5163 -7.7761 -22.0361 0.0000 0.0000 0.0000 -10.7522 19.3647 -38.1285 -8.9293 -16.7620 55.8452 0.2252 25.6182 -16.6095 -0.5562 4.7774 -13.2747 -8.3257 -5.3367 16.2448 4.3891 -8.2713 -0.7813 11.3492 -3.5497 -8.0756 -17.8538 -17.7276 9.1704 18.9867 -25.8603 2.6578 7.2528 -13.2294 4.1579 -0.0000 0.0000 0.0000 -86.1341 3.6929 21.5817 17.0197 -26.8838 -4.0963 -0.0000 -0.0000 16.6577 28.1000 9.1229 4.8391 -7.1250 0.0000 -0.0000 1.0285 40.2949 -0.1193 -0.0000 0.0000 0.0000 72.6223 -9.0286 29.2561 -19.4064 29.9205 -5.2320 0.0000 -0.0000 -0.8999 -16.6578 -38.6291 10.5804 7.1250 -0.0000 -0.0000 25.6522 -68.1844 -14.6485
-7.6176 14.8714 -35.7960 3.4294 60.0666 5.3414 0.0000 0.0000 0.0000 -2.4167 9.9317 -17.4565 8.5589 16.5154 54.5519 2.4561 7.8322 -33.1851 1.5362 -7.8247 -22.1829 0.0000 0.0000 0.0000 -10.9103 19.4979 -38.2297 -8.9045 -16.7459 55.7594 0.2682 25.7517 -16.4246 -0.5305 4.6672 -12.9618 -8.3792 -5.3730 16.1216 4.3450 -8.3287 -0.8243 11.3247 -3.5788 -8.0399 -17.8109 -17.7406 9.1586 18.9332 -25.8808 2.7565 7.2251 -13.2364 4.1799 -0.0000 -0.0000 0.0000 -85.9212 3.3469 21.2501 16.2292 -25.8304 -3.7453 -0.0000 -0.0000 17.9522 27.8408 9.5355 5.0002 -7.1250 0.0000 -0.0000 0.7737 40.7348 -0.0814 -0.0000 -0.0000 0.0000 72.7511 -9.0682 28.6217 -19.0558 29.4879 -5.0583 0.0000 -0.0000 -1.4000 -16.9478 -38.7075 10.7892 7.1250 -0.0000 -0.0000 25.4277 -68.3421 -14.6034
-7.6196 14.8767 -35.7967 3.6324 59.7897 5.5214 0.0000 0.0000 0.0000 -2.5775 10.1414 -17.3331 8.5080 16.4805 54.3727 2.4585 7.7860 -33.1725 1.5144 -7.7715 -22.0221 0.0000 0.0000 0.0000 -11.0422 19.5985 -38.3466 -8.8855 -16.7335 55.6933 0.3181 25.9297 -16.2297 -0.5141 4.5957 -12.7590 -8.5713 -5.3453 15.9837 4.3680 -8.3187 -0.8331 11.4375 -3.5743 -7.9446 -17.7639 -17.7902 9.0041 18.7685 -25.9275 2.8839 7.1445 -13.2476 4.2214 0.0000 -0.0000 0.0000 -85.7921 2.9440 21.0485 15.5287 -24.8774 -3.4453 -0.0000 -0.0000 19.1411 27.8070 10.9635 5.7277 -7.1250 0.0000 -0.0000 0.6391 42.3322 -0.0421 0.0000 -0.0000 0.0000 72.8346 -9.2030 27.9637 -18.7803 29.1448 -4.9234 0.0000 -0.0000 -1.7833 -17.4267 -39.3101 11.2469 7.1250 -0.0000 -0.0000 25.7448 -69.0136 -15.1784
-7.6220 14.8804 -35.7972 3.7968 59.5632 5.6257 0.0000 0.0000 0.0000 -2.6939 10.3102 -17.1730 8.4643 16.4504 54.2184 2.4611 7.7578 -33.1713 1.5055 -7.7495 -21.9559 0.0000 0.0000 0.0000 -11.1313 19.6665 -38.4046 -8.8711 -16.7240 55.6431 0.3657 26.1105 -16.0539 -0.4923 4.4985 -12.4836 -8.6966 -5.3264 15.9125 4.3513 -8.3162 -0.8621 11.4819 -3.5695 -7.9230 -17.7180 -17.7712 9.2563 18.8334 -25.9169 2.7516 7.1923 -13.2576 4.1434 -0.0000 0.0000 0.0000 -85.5959 2.6185 20.6903 14.8908 -23.9938 -3.1814 -0.0000 -0.0000 20.3395 26.7296 7.5811 3.8011 -7.1250 0.0000 -0.0000 -0.0762 38.4554 0.0123 -0.0000 0.0000 0.0000 72.9553 -9.3261 27.2714 -18.4686 28.7530 -4.7725 0.0000 -0.0000 -2.2222 -17.7163 -38.9628 11.3583 7.1250 -0.0000 -0.0000 24.8974 -68.8037 -14.5401
-7.6237 14.8837 -35.8043 4.1862 59.3816 5.9875 0.0000 0.0000 0.0000 -2.9925 10.3713 -17.0995 8.4290 16.4259 54.0936 2.4615 7.7899 -33.1917 1.5074 -7.7543 -21.9704 0.0000 0.0000 0.0000 -11.3970 19.6168 -38.5411 -8.8575 -16.7151 55.5959 0.4579 26.4391 -15.7012 -0.4398 4.2551 -11.7955 -8.7763 -5.4009 15.8717 4.2942 -8.4363 -0.9186 11.4810 -3.6237 -7.9310 -17.7780 -17.7220 9.3383 18.8868 -25.8718 2.7612 7.2296 -13.2405 4.1405 0.0000 -0.0000 0.0000 -85.4757 2.2595 20.0571 14.3135 -23.1812 -2.9504 -0.0000 -0.0000 21.5666 26.1467 7.9392 3.8790 -7.1250 0.0000 -0.0000 -0.6026 38.8098 0.0919 0.0000 -0.0000 0.0000 72.9673 -9.2423 26.8557 -18.1266 28.3190 -4.6091 0.0000 -0.0000 -2.8454 -17.6976 -39.0265 11.3610 7.1250 -0.0000 -0.0000 25.0114 -68.8533 -14.6373
-7.6272 14.8859 -35.8029 3.9475 59.1935 5.7146 0.0000 0.0000 0.0000 -2.8562 10.5615 -17.0015 8.4085 16.4116 54.0210 2.4452 7.8562 -33.1363 1.5274 -7.8032 -22.1178 0.0000 0.0000 0.0000 -11.2551 19.8337 -38.5245 -8.8431 -16.7057 55.5460 0.4614 26.4076 -15.6498 -0.4437 4.2738 -11.8482 -8.6973 -5.4079 15.8614 4.3171 -8.4279 -0.9247 11.4597 -3.6215 -7.9414 -17.7704 -17.6414 9.3806 18.9044 -25.7728 2.8006 7.2528 -13.1934 4.1291 0.0000 -0.0000 0.0000 -85.3009 1.9451 19.5521 13.8001 -22.4482 -2.7513 -0.0000 -0.0000 22.8653 25.7544 7.9476 3.8163 -7.1250 0.0000 -0.0000 -0.9426 38.7892 0.1442 0.0000 -0.0000 0.0000 73.1366 -9.4408 26.2862 -17.8756 27.9976 -4.4907 0.0000 -0.0000 -3.1184 -18.0060 -39.4616 11.6720 7.1250 -0.0000 -0.0000 25.2921 -69.3285 -15.0752
-7.6319 14.8861 -35.8071 4.1680 59.1269 5.8467 0.0000 0.0000 0.0000 -2.9990 10.5325 -16.8862 8.3923 16.4004 53.9638 2.4577 7.7643 -33.1558 1.5063 -7.7516 -21.9621 0.0000 0.0000 0.0000 -11.3860 19.7948 -38.5222 -8.8315 -16.6980 55.5054 0.5414 26.6602 -15.3194 -0.3960 4.0403 -11.1901 -8.7950 -5.4434 15.8957 4.3016 -8.4994 -0.9482 11.5166 -3.6502 -7.9578 -17.7022 -17.6671 9.3295 18.7584 -25.7960 2.9054 7.1912 -13.1988 4.1433 0.0000 0.0000 0.0000 -85.1814 1.6195 19.0306 13.3875 -21.8524 -2.5958 -0.0000 -0.0000 23.9657 25.2062 8.1503 3.8177 -7.1250 0.0000 -0.0000 -1.4327 38.9707 0.2129 0.0000 0.0000 0.0000 73.1989 -9.4977 25.8625 -17.5773 27.6125 -4.3515 0.0000 -0.0000 -3.1997 -18.1638 -39.7099 11.8385 7.1250 -0.0000 -0.0000 25.4840 -69.5936 -15.3436
-7.6345 14.8853 -35.8114 4.2897 58.9933 5.8886 0.0000 0.0000 0.0000 -3.0907 10.6048 -16.7886 8.3884 16.3976 53.9499 2.4617 7.7854 -33.1903 1.5033 -7.7443 -21.9401 0.0000 0.0000 0.0000 -11.4355 19.7894 -38.5271 -8.8198 -16.6903 55.4647 0.5000 26.6115 -15.5610 -0.4665 4.3810 -12.1511 -8.8571 -5.4449 15.8977 4.2930 -8.5156 -0.9675 11.5472 -3.6540 -7.9691 -17.6712 -17.7355 9.2954 18.7163 -25.8840 2.9434 7.1571 -13.2388 4.1661 -0.0000 0.0000 0.0000 -85.0569 1.3289 18.4776 13.0516 -21.3628 -2.4721 -0.0000 -0.0000 25.0317 24.2722 8.2758 3.7137 -7.1250 0.0000 -0.0000 -2.2521 39.0361 0.3311 -0.0000 0.0000 0.0000 73.2408 -9.5922 25.4579 -17.2909 27.2397 -4.2196 0.0000 -0.0000 -3.3053 -18.7808 -39.2844 12.1509 7.1250 -0.0000 -0.0000 24.1084 -69.4217 -14.3894
-7.6371 14.8846 -35.8142 4.2446 58.8364 5.8229 0.0000 0.0000 0.0000 -3.0784 10.7585 -16.7612 8.3875 16.3970 53.9467 2.4527 7.8658 -33.1844 1.5143 -7.7711 -22.0211 0.0000 0.0000 0.0000 -11.4313 19.8833 -38.5777 -8.8114 -16.6848 55.4355 0.5455 26.7437 -15.3642 -0.4456 4.2832 -11.8747 -8.8089 -5.4481 15.8689 4.3018 -8.5079 -0.9740 11.5247 -3.6522 -7.9674 -17.6879 -17.7490 9.2796 18.7562 -25.9045 2.9314 7.1657 -13.2484 4.1766 -0.0000 0.0000 0.0000 -84.9286 1.0180 18.0426 12.7754 -20.9572 -2.3723 -0.0000 -0.0000 25.8036 23.9205 8.5032 3.7525 -7.1250 0.0000 -0.0000 -2.5784 39.2563 0.3652 -0.0000 0.0000 0.0000 73.2750 -9.6293 25.0935 -16.9868 26.8404 -4.0814 0.0000 -0.0000 -3.2261 -18.7247 -39.4705 12.1597 7.1250 -0.0000 -0.0000 24.4536 -69.5662 -14.6821
-7.6408 14.8837 -35.8157 4.1783 58.7710 5.7226 0.0000 0.0000 0.0000 -3.0590 10.8650 -16.7816 8.3962 16.4031 53.9775 2.3918 8.2707 -33.0704 1.5840 -7.9397 -22.5311 0.0000 0.0000 0.0000 -11.4103 19.9525 -38.5651 -8.8015 -16.6782 55.4010 0.6409 26.9712 -14.9088 -0.3614 3.8619 -10.6884 -8.7699 -5.5028 15.8563 4.3381 -8.5684 -0.9634 11.5494 -3.6863 -7.9330 -17.7566 -17.7331 9.2159 18.7811 -25.8872 2.9548 7.1748 -13.2370 4.2029 0.0000 0.0000 0.0000 -84.8845 0.6544 17.3400 12.5397 -20.6090 -2.2887 -0.0000 -0.0000 26.4627 23.1447 8.3603 3.5564 -7.1250 0.0000 -0.0000 -3.2356 39.0408 0.4756 0.0000 0.0000 0.0000 73.2541 -9.5656 24.7038 -16.7476 26.5239 -3.9740 0.0000 -0.0000 -3.4586 -18.3783 -39.8739 12.0241 7.1250 -0.0000 -0.0000 25.4842 -69.8041 -15.4617
-7.6457 14.8812 -35.8184 4.1882 58.7294 5.6822 0.0000 0.0000 0.0000 -3.0391 10.8494 -16.7213 8.4052 16.4094 54.0095 2.4420 7.9602 -33.1777 1.5404 -7.8349 -22.2136 0.0000 0.0000 0.0000 -11.4153 19.9952 -38.5537 -8.7988 -16.6765 55.3915 0.6517 27.0060 -14.8655 -0.3654 3.8831 -10.7480 -8.7787 -5.5482 15.8838 4.3319 -8.6346 -0.9887 11.5646 -3.7152 -7.9597 -17.5958 -17.7071 9.2761 18.6447 -25.8252 2.8937 7.1379 -13.2087 4.1235 0.0000 0.0000 0.0000 -84.7696 0.4054 16.8616 12.3699 -20.3570 -2.2293 -0.0000 -0.0000 27.0662 23.3054 8.9502 3.8342 -7.1250 0.0000 -0.0000 -3.1590 39.6915 0.4138 0.0000 0.0000 0.0000 73.3962 -9.6039 24.2301 -16.4805 26.1679 -3.8554 0.0000 -0.0000 -3.0442 -18.3709 -39.9502 12.0377 7.1250 -0.0000 -0.0000 25.6125 -69.8674 -15.5785
-7.6495 14.8798 -35.8207 4.1242 58.6909 5.5923 0.0000 0.0000 0.0000 -3.0058 10.9604 -16.7636 8.4201 16.4197 54.0622 2.3956 8.2642 -33.0880 1.6037 -7.9866 -22.6734 0.0000 0.0000 0.0000 -11.3892 20.0408 -38.5456 -8.7959 -16.6746 55.3817 0.7019 27.0998 -14.6017 -0.3220 3.6476 -10.0873 -8.6709 -5.5584 15.8767 4.3044 -8.6302 -1.0100 11.4733 -3.7138 -8.0004 -17.7125 -17.7418 9.0735 18.7234 -25.8895 3.0753 7.1337 -13.2277 4.2479 0.0000 0.0000 0.0000 -84.6055 0.1432 16.6208 12.2625 -20.1971 -2.1921 -0.0000 -0.0000 27.2989 23.0334 8.9699 3.7925 -7.1250 0.0000 -0.0000 -3.3980 39.6905 0.4453 0.0000 0.0000 0.0000 73.4202 -9.6970 24.1296 -16.2652 25.8790 -3.7610 0.0000 -0.0000 -3.1217 -18.3383 -39.8992 12.0030 7.1250 -0.0000 -0.0000 25.5715 -69.8130 -15.5220
